<svg width="76" height="77" viewBox="0 0 76 77" fill="none" xmlns="http://www.w3.org/2000/svg">
    <g clip-path="url(#clip0_2_1463)">
        <path d="M59.9133 19.5317C59.28 17.6633 57.5067 16.3333 55.4167 16.3333H20.5833C18.4933 16.3333 16.7517 17.6633 16.0867 19.5317L9.5 38.5V63.8333C9.5 65.575 10.925 67 12.6667 67H15.8333C17.575 67 19 65.575 19 63.8333V60.6667H57V63.8333C57 65.575 58.425 67 60.1667 67H63.3333C65.075 67 66.5 65.575 66.5 63.8333V38.5L59.9133 19.5317ZM20.5833 51.1667C17.955 51.1667 15.8333 49.045 15.8333 46.4167C15.8333 43.7883 17.955 41.6667 20.5833 41.6667C23.2117 41.6667 25.3333 43.7883 25.3333 46.4167C25.3333 49.045 23.2117 51.1667 20.5833 51.1667ZM55.4167 51.1667C52.7883 51.1667 50.6667 49.045 50.6667 46.4167C50.6667 43.7883 52.7883 41.6667 55.4167 41.6667C58.045 41.6667 60.1667 43.7883 60.1667 46.4167C60.1667 49.045 58.045 51.1667 55.4167 51.1667ZM15.8333 35.3333L20.5833 21.0833H55.4167L60.1667 35.3333H15.8333Z" stroke="#595959" stroke-width="3"/>
    </g>
    <defs>
        <clipPath id="clip0_2_1463">
            <rect width="76" height="76" fill="white" transform="translate(0 0.5)"/>
        </clipPath>
    </defs>
</svg>
