<svg width="76" height="77" viewBox="0 0 76 77" fill="none" xmlns="http://www.w3.org/2000/svg">
    <g clip-path="url(#clip0_2_1457)">
        <path d="M38 5.66666C19.6916 5.66666 4.83331 20.5249 4.83331 38.8333C4.83331 57.1418 19.6916 72 38 72C56.3084 72 71.1667 57.1418 71.1667 38.8333C71.1667 20.5249 56.3084 5.66666 38 5.66666ZM25.3333 54.75C21.7917 54.75 18.9166 51.8749 18.9166 48.3333C18.9166 44.7918 21.7917 41.9167 25.3333 41.9167C28.8749 41.9167 31.75 44.7918 31.75 48.3333C31.75 51.8749 28.8749 54.75 25.3333 54.75ZM31.5833 26.1667C31.5833 22.6251 34.4584 19.75 38 19.75C41.5416 19.75 44.4166 22.6251 44.4166 26.1667C44.4166 29.7082 41.5416 32.5833 38 32.5833C34.4584 32.5833 31.5833 29.7082 31.5833 26.1667ZM50.6666 54.75C47.1251 54.75 44.25 51.8749 44.25 48.3333C44.25 44.7918 47.1251 41.9167 50.6666 41.9167C54.2082 41.9167 57.0833 44.7918 57.0833 48.3333C57.0833 51.8749 54.2082 54.75 50.6666 54.75Z" stroke="#595959" stroke-width="3"/>
    </g>
    <defs>
        <clipPath id="clip0_2_1457">
            <rect width="76" height="76" fill="white" transform="translate(0 0.5)"/>
        </clipPath>
    </defs>
</svg>
